<svg width="16" height="16" viewBox="0 0 16 16" fill="none" xmlns="http://www.w3.org/2000/svg">
<path d="M12.7 3.27332C12.0888 2.65594 11.3608 2.16643 10.5584 1.83336C9.75603 1.50028 8.89538 1.3303 8.02664 1.33332C4.38664 1.33332 1.41997 4.29999 1.41997 7.93999C1.41997 9.10666 1.72664 10.24 2.29997 11.24L1.36664 14.6667L4.86664 13.7467C5.8333 14.2733 6.91997 14.5533 8.02664 14.5533C11.6666 14.5533 14.6333 11.5867 14.6333 7.94666C14.6333 6.17999 13.9466 4.51999 12.7 3.27332ZM8.02664 13.4333C7.03997 13.4333 6.07331 13.1667 5.22664 12.6667L5.02664 12.5467L2.94664 13.0933L3.49997 11.0667L3.36664 10.86C2.81847 9.98463 2.5274 8.97282 2.52664 7.93999C2.52664 4.91332 4.9933 2.44666 8.01997 2.44666C9.48664 2.44666 10.8666 3.01999 11.9 4.05999C12.4116 4.5693 12.8171 5.1751 13.0929 5.84227C13.3687 6.50945 13.5093 7.22473 13.5066 7.94666C13.52 10.9733 11.0533 13.4333 8.02664 13.4333ZM11.04 9.32666C10.8733 9.24666 10.06 8.84666 9.91331 8.78666C9.75997 8.73332 9.65331 8.70666 9.53997 8.86666C9.42664 9.03332 9.1133 9.40666 9.01997 9.51332C8.92664 9.62666 8.82664 9.63999 8.65997 9.55332C8.4933 9.47332 7.95997 9.29332 7.3333 8.73332C6.83997 8.29332 6.5133 7.75332 6.4133 7.58666C6.31997 7.41999 6.39997 7.33332 6.48664 7.24666C6.55997 7.17332 6.65331 7.05332 6.7333 6.95999C6.8133 6.86665 6.84664 6.79332 6.89997 6.68666C6.95331 6.57332 6.92664 6.47999 6.88664 6.39999C6.84664 6.31999 6.5133 5.50666 6.37997 5.17332C6.24664 4.85332 6.10664 4.89332 6.00664 4.88666H5.68664C5.5733 4.88666 5.39997 4.92666 5.24664 5.09332C5.09997 5.25999 4.67331 5.65999 4.67331 6.47332C4.67331 7.28666 5.26664 8.07332 5.34664 8.17999C5.42664 8.29332 6.5133 9.95999 8.16664 10.6733C8.55997 10.8467 8.86664 10.9467 9.10664 11.02C9.49997 11.1467 9.85997 11.1267 10.1466 11.0867C10.4666 11.04 11.1266 10.6867 11.26 10.3C11.4 9.91332 11.4 9.58666 11.3533 9.51332C11.3066 9.43999 11.2066 9.40666 11.04 9.32666Z" fill="#636363"/>
</svg>
